HIERARCHY
ROOT Hips
{
  OFFSET 0 96.8 0
  CHANNELS 6 Xposition Yposition Zposition Zrotation Xrotation Yrotation
  JOINT Spine
  {
    OFFSET 0 12.3689 -3.99218
    CHANNELS 3 Zrotation Xrotation Yrotation
    JOINT Spine1
    {
      OFFSET 0 14.0303 0
      CHANNELS 3 Zrotation Xrotation Yrotation
      JOINT Spine2
      {
        OFFSET 0 5.60109 0
        CHANNELS 3 Zrotation Xrotation Yrotation
        JOINT Neck
        {
          OFFSET 0 23.8357 -5.66956
          CHANNELS 3 Zrotation Xrotation Yrotation
          JOINT Head
          {
            OFFSET 0 9.08726 0
            CHANNELS 3 Zrotation Xrotation Yrotation
            End Site
            {
              OFFSET 0 19.5091 9.42096
            }
          }
        }
        JOINT RightShoulder
        {
          OFFSET -6.92539 12.7236 -3.42068
          CHANNELS 3 Zrotation Xrotation Yrotation
          JOINT RightArm
          {
            OFFSET 0 11.9164 0
            CHANNELS 3 Zrotation Xrotation Yrotation
            JOINT RightForeArm
            {
              OFFSET -1.03322e-05 25.7 1.48965e-05
              CHANNELS 3 Zrotation Xrotation Yrotation
              JOINT RightHand
              {
                OFFSET -1.0694e-05 26.6 1.54182e-05
                CHANNELS 3 Zrotation Xrotation Yrotation
                JOINT RightHandThumb1
                {
                  OFFSET 2.51819 2.31438 1.47793
                  CHANNELS 3 Zrotation Xrotation Yrotation
                  JOINT RightHandThumb2
                  {
                    OFFSET 0 3.93334 0
                    CHANNELS 3 Zrotation Xrotation Yrotation
                    JOINT RightHandThumb3
                    {
                      OFFSET 0 3.20778 0
                      CHANNELS 3 Zrotation Xrotation Yrotation
                      End Site
                      {
                        OFFSET 0 2.41783 0
                      }
                    }
                  }
                }
                JOINT RightHandIndex1
                {
                  OFFSET 0 8.70165 0
                  CHANNELS 3 Zrotation Xrotation Yrotation
                  JOINT RightHandIndex2
                  {
                    OFFSET 0 3.42558 0
                    CHANNELS 3 Zrotation Xrotation Yrotation
                    JOINT RightHandIndex3
                    {
                      OFFSET 0 2.63863 0
                      CHANNELS 3 Zrotation Xrotation Yrotation
                      End Site
                      {
                        OFFSET 0 2.56659 0
                      }
                    }
                  }
                }
                JOINT RightHandMiddle1
                {
                  OFFSET -2.22417e-05 8.95076 3.74234e-05
                  CHANNELS 3 Zrotation Xrotation Yrotation
                  JOINT RightHandMiddle2
                  {
                    OFFSET 0 3.4742 0
                    CHANNELS 3 Zrotation Xrotation Yrotation
                    JOINT RightHandMiddle3
                    {
                      OFFSET 0 2.76997 0
                      CHANNELS 3 Zrotation Xrotation Yrotation
                      End Site
                      {
                        OFFSET 0 2.7668 0
                      }
                    }
                  }
                }
                JOINT RightHandRing1
                {
                  OFFSET -1.75131 8.54802 0.0404412
                  CHANNELS 3 Zrotation Xrotation Yrotation
                  JOINT RightHandRing2
                  {
                    OFFSET 0 3.17304 0
                    CHANNELS 3 Zrotation Xrotation Yrotation
                    JOINT RightHandRing3
                    {
                      OFFSET 0 2.71333 0
                      CHANNELS 3 Zrotation Xrotation Yrotation
                      End Site
                      {
                        OFFSET 0 2.47778 0
                      }
                    }
                  }
                }
                JOINT RightHandPinky1
                {
                  OFFSET -3.57399 7.58378 0.457001
                  CHANNELS 3 Zrotation Xrotation Yrotation
                  JOINT RightHandPinky2
                  {
                    OFFSET 0 3.3803 0
                    CHANNELS 3 Zrotation Xrotation Yrotation
                    JOINT RightHandPinky3
                    {
                      OFFSET 0 1.97184 0
                      CHANNELS 3 Zrotation Xrotation Yrotation
                      End Site
                      {
                        OFFSET 0 1.98666 0
                      }
                    }
                  }
                }
              }
            }
          }
        }
        JOINT LeftShoulder
        {
          OFFSET 6.92539 12.7236 -3.42068
          CHANNELS 3 Zrotation Xrotation Yrotation
          JOINT LeftArm
          {
            OFFSET 0 11.9164 0
            CHANNELS 3 Zrotation Xrotation Yrotation
            JOINT LeftForeArm
            {
              OFFSET 0 25.7 0
              CHANNELS 3 Zrotation Xrotation Yrotation
              JOINT LeftHand
              {
                OFFSET 0 26.6 0
                CHANNELS 3 Zrotation Xrotation Yrotation
                JOINT LeftHandThumb1
                {
                  OFFSET -2.51807 2.31564 1.48
                  CHANNELS 3 Zrotation Xrotation Yrotation
                  JOINT LeftHandThumb2
                  {
                    OFFSET 0 3.93157 0
                    CHANNELS 3 Zrotation Xrotation Yrotation
                    JOINT LeftHandThumb3
                    {
                      OFFSET 0 3.20977 0
                      CHANNELS 3 Zrotation Xrotation Yrotation
                      End Site
                      {
                        OFFSET 0 2.4231 0
                      }
                    }
                  }
                }
                JOINT LeftHandIndex1
                {
                  OFFSET 0 8.70165 0
                  CHANNELS 3 Zrotation Xrotation Yrotation
                  JOINT LeftHandIndex2
                  {
                    OFFSET 0 3.42522 0
                    CHANNELS 3 Zrotation Xrotation Yrotation
                    JOINT LeftHandIndex3
                    {
                      OFFSET 0 2.63834 0
                      CHANNELS 3 Zrotation Xrotation Yrotation
                      End Site
                      {
                        OFFSET 0 2.56879 0
                      }
                    }
                  }
                }
                JOINT LeftHandMiddle1
                {
                  OFFSET -3.43705e-05 8.9516 -3.05546e-05
                  CHANNELS 3 Zrotation Xrotation Yrotation
                  JOINT LeftHandMiddle2
                  {
                    OFFSET 0 3.4742 0
                    CHANNELS 3 Zrotation Xrotation Yrotation
                    JOINT LeftHandMiddle3
                    {
                      OFFSET 0 2.76997 0
                      CHANNELS 3 Zrotation Xrotation Yrotation
                      End Site
                      {
                        OFFSET 0 2.77266 0
                      }
                    }
                  }
                }
                JOINT LeftHandRing1
                {
                  OFFSET 1.75126 8.5489 0.0404023
                  CHANNELS 3 Zrotation Xrotation Yrotation
                  JOINT LeftHandRing2
                  {
                    OFFSET 0 2.95776 0
                    CHANNELS 3 Zrotation Xrotation Yrotation
                    JOINT LeftHandRing3
                    {
                      OFFSET 0 2.76997 0
                      CHANNELS 3 Zrotation Xrotation Yrotation
                      End Site
                      {
                        OFFSET -2.1854e-05 2.48294 0
                      }
                    }
                  }
                }
                JOINT LeftHandPinky1
                {
                  OFFSET 3.57398 7.58481 0.457164
                  CHANNELS 3 Zrotation Xrotation Yrotation
                  JOINT LeftHandPinky2
                  {
                    OFFSET 0 3.3803 0
                    CHANNELS 3 Zrotation Xrotation Yrotation
                    JOINT LeftHandPinky3
                    {
                      OFFSET 0 1.97184 0
                      CHANNELS 3 Zrotation Xrotation Yrotation
                      End Site
                      {
                        OFFSET 0 1.99582 0
                      }
                    }
                  }
                }
              }
            }
          }
        }
      }
    }
  }
  JOINT RightUpLeg
  {
    OFFSET -8.5 -8.19964 0.08092
    CHANNELS 3 Zrotation Xrotation Yrotation
    JOINT RightLeg
    {
      OFFSET 0 42.9009 0
      CHANNELS 3 Zrotation Xrotation Yrotation
      JOINT RightFoot
      {
        OFFSET 0 38.0864 0
        CHANNELS 3 Zrotation Xrotation Yrotation
        JOINT RightToe
        {
          OFFSET 0 14.087 0
          CHANNELS 3 Zrotation Xrotation Yrotation
          End Site
          {
            OFFSET 0 9.45955 0
          }
        }
      }
    }
  }
  JOINT LeftUpLeg
  {
    OFFSET 8.5 -8.19964 0.08092
    CHANNELS 3 Zrotation Xrotation Yrotation
    JOINT LeftLeg
    {
      OFFSET 0 42.9009 0
      CHANNELS 3 Zrotation Xrotation Yrotation
      JOINT LeftFoot
      {
        OFFSET 0 38.0864 0
        CHANNELS 3 Zrotation Xrotation Yrotation
        JOINT LeftToe
        {
          OFFSET 0 14.087 0
          CHANNELS 3 Zrotation Xrotation Yrotation
          End Site
          {
            OFFSET 0 9.45957 0
          }
        }
      }
    }
  }
}
MOTION
Frames:	4
Frame Time:	0.0333333
0 93.7782 0 3.93751 -2.11762 13.9888 1.37287 12.7982 -3.1274 1.10054 -5.11497 -3.37828 0.830134 3.60246 -2.52059 3.86186e-06 29.2987 -9.90584e-06 -7.95139e-15 9.54166e-15 -5.56597e-15 68.0656 11.5674 -80.5014 -96.0482 40.2952 50.998 -27.6378 -2.67105 -13.1453 -37.9685 -8.33648 -19.4694 -30.9004 26.556 14.9798 1.06543 -0.266601 -0.131651 0.7928 -0.191401 -0.091243 -0.0188237 -6.94349e-05 3.18055e-15 0.0292947 -7.95139e-16 -0 -0.0100751 -7.95139e-16 4.77083e-15 -0.0575027 -0.000112091 -1.59028e-15 0.0973881 -7.95139e-16 -0 -0.0368804 -3.97569e-15 -0 0.0178567 7.9792e-06 1.59028e-15 -0.0253838 -7.95139e-16 3.18055e-15 -0.0129265 1.59028e-15 -0 0.0596292 0.000535225 -1.59028e-15 0.096971 0 4.77083e-15 -0.0569265 1.59028e-15 -0 -73.3487 -3.51424 88.2004 99.9295 61.3872 -42.9442 2.47419 0.778144 -14.9956 -21.6641 27.9049 20.484 30.7775 26.5578 -14.9111 -0.940956 -0.237838 0.117539 -0.695804 -0.175996 0.084333 -0.0050508 7.6384e-05 -0 0.0120434 3.90438e-05 -1.27222e-14 -0.00759159 3.83596e-05 -0 -0.00362641 4.68076e-05 -3.18055e-15 0.0024289 -1.87453e-05 -6.36111e-15 0.00237084 -4.89982e-05 -3.18055e-15 0.000723448 7.16082e-05 -6.36111e-15 1.59028e-15 1.59028e-15 -3.18055e-15 -1.59028e-15 -1.59028e-15 -3.18055e-15 0.234317 -0.000570151 2.33218e-06 -0.0241399 7.20261e-05 -3.18055e-15 -0.00768704 1.21015e-05 -0 175.327 14.7172 10.3717 2.39457 -43.3756 -4.62539 17.5449 75.6568 -17.1563 -1.55001e-05 39.1744 5.51545e-06 -177.112 20.5784 -4.54956 -0.504415 -15.9097 -3.58814 -11.7839 67.8202 10.5276 -1.59485e-05 39.1744 5.46156e-06
-0.97405 93.8228 -0.0982 4.08235 -1.91005 14.5766 1.36128 12.665 -3.08728 1.09336 -5.27061 -3.33468 0.82513 3.4912 -2.48895 3.86186e-06 29.2987 -9.90584e-06 -6.36111e-15 3.18055e-15 -7.15625e-15 68.538 10.3929 -81.134 -96.3974 41.8256 51.5301 -28.357 -3.25004 -12.4266 -37.0452 -8.76581 -18.5288 -30.9004 26.556 14.9798 1.06543 -0.266601 -0.131651 0.7928 -0.191401 -0.091243 -0.0188237 -6.94349e-05 1.59028e-15 0.0292947 0 6.36111e-15 -0.0100751 1.59028e-15 -1.59028e-15 -0.0575027 -0.000112091 1.59028e-15 0.0973881 -4.77083e-15 3.18055e-15 -0.0368804 -1.59028e-15 4.77083e-15 0.0178567 7.9792e-06 1.59028e-15 -0.0253838 4.77083e-15 -1.59028e-15 -0.0129265 1.59028e-15 -6.36111e-15 0.0596292 0.000535225 -0 0.096971 0 -1.59028e-15 -0.0569265 -3.18055e-15 -1.59028e-15 -73.4165 -3.49726 88.193 101.668 61.5257 -43.7653 3.50478 0.283571 -13.9113 -23.4924 29.1157 23.5 30.7775 26.5578 -14.9111 -0.940956 -0.237838 0.117539 -0.695804 -0.175996 0.084333 -0.0050508 7.6384e-05 1.59028e-14 0.0120434 3.90438e-05 -6.36111e-15 -0.00759159 3.83596e-05 3.18055e-15 -0.00362641 4.68076e-05 9.54166e-15 0.0024289 -1.87453e-05 9.54166e-15 0.00237084 -4.89982e-05 -6.36111e-15 0.000723448 7.16082e-05 1.59028e-14 -1.59028e-15 -1.59028e-15 3.18055e-15 0 0 -0 0.234317 -0.000570151 2.33218e-06 -0.0241399 7.20261e-05 3.18055e-15 -0.00768704 1.21015e-05 -0 175.429 15.6599 9.96963 2.68213 -42.8267 -3.57596 17.7991 75.7718 -17.3173 -1.55001e-05 39.1744 5.51545e-06 -177.018 20.1417 -4.75394 -0.706832 -16.315 -4.92472 -11.3494 66.822 10.0007 -1.59485e-05 39.1744 5.46156e-06
-2.15167 93.9946 -0.2812 4.07653 -1.55699 15.0714 1.34769 12.4432 -3.09645 1.07586 -5.52925 -3.3498 0.814002 3.30638 -2.49845 3.86186e-06 29.2987 -9.90584e-06 -6.36111e-15 3.18055e-15 -6.36111e-15 69.2679 8.49462 -82.1399 -96.8887 44.267 51.8207 -30.5437 -3.39167 -12.0611 -35.908 -8.48389 -17.298 -30.9004 26.556 14.9798 1.06543 -0.266601 -0.131651 0.7928 -0.191401 -0.091243 -0.0188237 -6.94349e-05 1.27222e-14 0.0292947 -1.59028e-15 -6.36111e-15 -0.0100751 -4.77083e-15 -0 -0.0575027 -0.000112091 9.54166e-15 0.0973881 -3.18055e-15 6.36111e-15 -0.0368804 -1.59028e-15 3.18055e-15 0.0178567 7.9792e-06 9.54166e-15 -0.0253838 -3.18055e-15 3.18055e-15 -0.0129265 -1.59028e-15 6.36111e-15 0.0596292 0.000535225 9.54166e-15 0.096971 3.18055e-15 6.36111e-15 -0.0569265 6.36111e-15 -6.36111e-15 -73.4746 -3.53346 88.2115 102.754 61.6919 -44.2503 4.38287 -0.159323 -12.8389 -24.8673 30.1875 24.9473 30.7775 26.5578 -14.9111 -0.940956 -0.237838 0.117539 -0.695804 -0.175996 0.084333 -0.0050508 7.6384e-05 -9.54166e-15 0.0120434 3.90438e-05 -0 -0.00759159 3.83596e-05 -6.36111e-15 -0.00362641 4.68076e-05 -6.36111e-15 0.0024289 -1.87453e-05 -9.54166e-15 0.00237084 -4.89982e-05 6.36111e-15 0.000723448 7.16082e-05 -3.18055e-15 -6.36111e-15 1.59028e-15 -6.36111e-15 -3.18055e-15 -1.59028e-15 -0 0.234317 -0.000570151 2.33218e-06 -0.0241399 7.20261e-05 -3.18055e-15 -0.00768704 1.21015e-05 9.54166e-15 175.473 16.9034 9.77452 3.05267 -42.315 -2.96807 17.763 75.7059 -17.2285 -1.55001e-05 39.1744 5.51545e-06 -176.879 19.0811 -5.39964 -0.805612 -16.9588 -5.26372 -10.6592 65.2833 9.27099 -1.59485e-05 39.1744 5.46156e-06
-3.41068 94.3529 -0.515 3.98994 -1.16081 15.5417 1.35741 12.173 -3.22407 1.06643 -5.84351 -3.49932 0.810842 3.08202 -2.60488 3.86186e-06 29.2987 -9.90584e-06 -7.15625e-15 -1.27222e-14 -9.54166e-15 70.1887 5.9534 -83.4589 -97.6641 47.4614 51.1154 -33.4735 -3.34317 -12.3069 -34.0029 -7.71223 -15.8282 -30.9004 26.556 14.9798 1.06543 -0.266601 -0.131651 0.7928 -0.191401 -0.091243 -0.0188237 -6.94349e-05 -3.18055e-15 0.0292947 -3.18055e-15 -0 -0.0100751 -6.36111e-15 -0 -0.0575027 -0.000112091 -3.18055e-15 0.0973881 -3.18055e-15 6.36111e-15 -0.0368804 3.18055e-15 -0 0.0178567 7.9792e-06 -0 -0.0253838 1.59028e-15 6.36111e-15 -0.0129265 1.59028e-15 -0 0.0596292 0.000535225 -6.36111e-15 0.096971 0 -3.18055e-15 -0.0569265 -1.59028e-15 -0 -73.5096 -3.56789 88.2288 103.301 61.8539 -44.6288 4.90408 -0.543445 -12.3087 -26.2497 29.8004 26.3623 30.7775 26.5578 -14.9111 -0.940956 -0.237838 0.117539 -0.695804 -0.175996 0.084333 -0.0050508 7.6384e-05 -0 0.0120434 3.90438e-05 6.36111e-15 -0.00759159 3.83596e-05 -0 -0.00362641 4.68076e-05 6.36111e-15 0.0024289 -1.87453e-05 1.27222e-14 0.00237084 -4.89982e-05 9.54166e-15 0.000723448 7.16082e-05 9.54166e-15 -7.95139e-16 -1.59028e-15 6.36111e-15 -1.59028e-15 0 -0 0.234317 -0.000570151 2.33218e-06 -0.0241399 7.20261e-05 3.18055e-15 -0.00768704 1.21015e-05 -6.36111e-15 175.499 18.0752 10.0334 3.12883 -41.8758 -2.74367 17.6313 75.5819 -17.0608 -1.55001e-05 39.1744 5.51545e-06 -176.639 16.1856 -6.57131 -0.569163 -18.5219 -5.4535 -9.45923 62.3638 8.1175 -1.59485e-05 39.1744 5.46156e-06
